<?xml version="1.0" standalone="no"?>
<!DOCTYPE svg PUBLIC "-//W3C//DTD SVG 20010904//EN"
 "http://www.w3.org/TR/2001/REC-SVG-20010904/DTD/svg10.dtd">
<svg version="1.0" xmlns="http://www.w3.org/2000/svg"
 width="240.000000pt" height="240.000000pt" viewBox="0 0 240.000000 240.000000"
 preserveAspectRatio="xMidYMid meet">
<metadata>
Created by potrace 1.11, written by Peter Selinger 2001-2013
</metadata>
<g transform="translate(0.000000,240.000000) scale(0.100000,-0.100000)"
fill="#000000" stroke="none">
<path d="M990 1670 l0 -50 101 0 100 0 -3 -332 c-3 -292 -5 -337 -20 -364 -32
-59 -140 -81 -244 -49 -27 8 -50 15 -51 15 -2 0 -3 -27 -3 -60 0 -57 1 -60 28
-67 15 -4 72 -8 127 -8 112 0 165 17 219 71 65 65 66 68 66 502 l0 392 -160 0
-160 0 0 -50z"/>
</g>
</svg>
